<?xml version="1.0" encoding="utf-8"?>
<!-- Generator: Adobe Illustrator 24.3.0, SVG Export Plug-In . SVG Version: 6.00 Build 0)  -->
<svg version="1.1" xmlns="http://www.w3.org/2000/svg" xmlns:xlink="http://www.w3.org/1999/xlink" x="0px" y="0px"
	 viewBox="0 0 100 100" style="enable-background:new 0 0 100 100;" xml:space="preserve">
<style type="text/css">
	.st0{fill:#0ABEE8;}
	.st1{fill:#FFFFFF;}
	.st2{fill:#00A11E;}
	.st3{fill:#FFFFFF;stroke:#002D9E;stroke-miterlimit:10;}
	.st4{fill:#00A11E;stroke:#002D9E;stroke-miterlimit:10;}
	.st5{fill:none;}
	.st6{font-family:'Intro';}
	.st7{font-size:22.0529px;}
	.st8{fill:#07009E;}
	.st9{fill:#0AA9E8;}
</style>
<g id="Слой_1">
	<g>
		<circle class="st0" cx="50" cy="50" r="49.5"/>
		<path class="st0" d="M50,1c27,0,49,22,49,49S77,99,50,99S1,77,1,50S23,1,50,1 M50,0C22.4,0,0,22.4,0,50s22.4,50,50,50
			s50-22.4,50-50S77.6,0,50,0L50,0z"/>
	</g>
	<g>
		<ellipse class="st1" cx="50" cy="49.5" rx="44.5" ry="45"/>
		<path class="st2" d="M50,5c24.3,0,44,20,44,44.5S74.3,94,50,94S6,74,6,49.5S25.7,5,50,5 M50,4C25.1,4,5,24.4,5,49.5S25.1,95,50,95
			s45-20.4,45-45.5S74.8,4,50,4L50,4z"/>
	</g>
	<g>
		<ellipse class="st3" cx="50.7" cy="49.5" rx="44.7" ry="45"/>
		<path class="st4" d="M50.7,5C75,5,94.8,25,94.8,49.5S75,94,50.7,94S6.5,74,6.5,49.5S26.3,5,50.7,5 M50.7,4
			C25.7,4,5.5,24.4,5.5,49.5S25.7,95,50.7,95s45.2-20.4,45.2-45.5S75.6,4,50.7,4L50.7,4z"/>
	</g>
	<g>
		<ellipse class="st3" cx="50.8" cy="49.5" rx="44.7" ry="45"/>
		<path class="st4" d="M50.8,5C75.2,5,95,25,95,49.5S75.2,94,50.8,94S6.7,74,6.7,49.5S26.5,5,50.8,5 M50.8,4
			C25.9,4,5.7,24.4,5.7,49.5S25.9,95,50.8,95S96,74.6,96,49.5S75.8,4,50.8,4L50.8,4z"/>
	</g>
	<rect x="33.4" y="12.6" class="st5" width="38.6" height="19.2"/>
	<text transform="matrix(0.7702 0 0 1 31.8906 29.0811)" class="st6 st7">CSS</text>
	<polygon class="st8" points="66.5,77.5 49.5,87.4 49.5,33.9 71.2,30.8 	"/>
	<polygon class="st9" points="32.2,77.5 49.5,87.4 49.5,33.9 28.8,31.1 	"/>
</g>
<g id="Слой_3">
</g>
<g id="Слой_2">
	<polygon class="st1" points="36,39.7 64,40 64,45 36,45 	"/>
	
		<rect x="46.5" y="39.5" transform="matrix(6.413905e-03 -1 1 6.413905e-03 -4.6108 102.4136)" class="st1" width="5.5" height="28.1"/>
	<path class="st1" d="M50.4,70.3l-0.9-4.4c-0.1-0.4,0.2-0.8,0.5-0.8l11.5-2.7c0.4-0.1,0.7,0.2,0.8,0.6l0.9,4.4
		c0.1,0.4-0.2,0.8-0.5,0.8l-11.5,2.7C50.8,70.9,50.4,70.7,50.4,70.3z"/>
	<path class="st1" d="M35.2,67.6l1.1-4.6c0.1-0.3,0.4-0.5,0.8-0.4l15.5,2.7c0.4,0.1,0.6,0.3,0.5,0.6L52,70.5
		c-0.1,0.3-0.4,0.5-0.8,0.4l-15.5-2.7C35.3,68.1,35.1,67.9,35.2,67.6z"/>
	<path class="st1" d="M57.6,55.9h5c0.3,0,0.6,0.3,0.6,0.6v10.7c0,0.3-0.3,0.6-0.6,0.6h-5c-0.3,0-0.6-0.3-0.6-0.6V56.5
		C57,56.2,57.2,55.9,57.6,55.9z"/>
	<path class="st1" d="M35.7,58.7l4.1-0.3c0.3,0,0.5,0.1,0.5,0.3L40,66.8c0,0.2-0.2,0.4-0.5,0.4l-4.1,0.3c-0.3,0-0.5-0.1-0.5-0.3
		l0.3-8.2C35.2,58.9,35.4,58.7,35.7,58.7z"/>
	<polygon class="st1" points="35.3,50.5 63.4,41.5 64,45 36.6,54.5 	"/>
</g>
</svg>
