<?xml version="1.0" encoding="utf-8"?>
<!-- Generator: Adobe Illustrator 24.3.0, SVG Export Plug-In . SVG Version: 6.00 Build 0)  -->
<svg version="1.1" xmlns="http://www.w3.org/2000/svg" xmlns:xlink="http://www.w3.org/1999/xlink" x="0px" y="0px"
	 viewBox="0 0 100 100" style="enable-background:new 0 0 100 100;" xml:space="preserve">
<style type="text/css">
	.st0{fill:#EA8D07;}
	.st1{fill:#FFFFFF;}
	.st2{fill:#00A11E;}
	.st3{fill:#FFFFFF;stroke:#A06B00;stroke-miterlimit:10;}
	.st4{fill:#00A11E;stroke:#A06B00;stroke-miterlimit:10;}
	.st5{fill:none;}
	.st6{font-family:'Intro';}
	.st7{font-size:22.0529px;}
	.st8{fill:#A06B00;stroke:#A06B00;stroke-miterlimit:10;}
</style>
<g id="Слой_1">
	<g>
		<circle class="st0" cx="50" cy="50" r="49.5"/>
		<path class="st0" d="M50,1c27,0,49,22,49,49S77,99,50,99S1,77,1,50S23,1,50,1 M50,0C22.4,0,0,22.4,0,50s22.4,50,50,50
			s50-22.4,50-50S77.6,0,50,0L50,0z"/>
	</g>
	<g>
		<ellipse class="st1" cx="50" cy="49.5" rx="44.5" ry="45"/>
		<path class="st2" d="M50,5c24.3,0,44,20,44,44.5S74.3,94,50,94S6,74,6,49.5S25.7,5,50,5 M50,4C25.1,4,5,24.4,5,49.5S25.1,95,50,95
			s45-20.4,45-45.5S74.8,4,50,4L50,4z"/>
	</g>
	<g>
		<ellipse class="st3" cx="50.3" cy="49.5" rx="44.5" ry="45"/>
		<path class="st4" d="M50.3,5c24.3,0,44,20,44,44.5S74.6,94,50.3,94s-44-20-44-44.5S26.1,5,50.3,5 M50.3,4c-24.9,0-45,20.4-45,45.5
			S25.5,95,50.3,95s45-20.4,45-45.5S75.2,4,50.3,4L50.3,4z"/>
	</g>
	<rect x="33.4" y="12.6" class="st5" width="38.6" height="19.2"/>
	<text transform="matrix(0.7702 0 0 1 26.856 29.0811)" class="st6 st7">HTML</text>
	<polygon class="st8" points="66.5,77.5 49.5,87.4 49.5,33.9 71.2,30.8 	"/>
	<polygon class="st0" points="32.2,78.1 49.5,88.2 49.5,33.3 28.8,30.4 	"/>
</g>
<g id="Слой_3">
</g>
<g id="Слой_2">
	<polygon class="st1" points="35.8,40.8 64.8,41.1 64.8,46.1 35.8,46.1 	"/>
	<polygon class="st1" points="35.9,44.1 40.7,44.6 41.5,56.4 35.8,55.8 	"/>
	
		<rect x="47.4" y="39.6" transform="matrix(6.413860e-03 -1 1 6.413860e-03 -4.1475 103.7631)" class="st1" width="5.5" height="28.7"/>
	<path class="st1" d="M51.7,71.2l-0.9-4.4C50.8,66.4,51,66,51.3,66l11.5-2.7c0.4-0.1,0.7,0.2,0.8,0.6l0.9,4.4
		c0.1,0.4-0.2,0.8-0.5,0.8l-11.5,2.7C52.1,71.9,51.8,71.6,51.7,71.2z"/>
	<path class="st1" d="M35.9,68.4l1.1-4.6c0.1-0.3,0.4-0.5,0.8-0.4l15.5,2.7c0.4,0.1,0.6,0.3,0.5,0.6l-1.1,4.6
		c-0.1,0.3-0.4,0.5-0.8,0.4L36.4,69C36,69,35.8,68.7,35.9,68.4z"/>
	<path class="st1" d="M58.9,56.4h5c0.3,0,0.6,0.3,0.6,0.6v10.7c0,0.3-0.3,0.6-0.6,0.6h-5c-0.3,0-0.6-0.3-0.6-0.6V57
		C58.3,56.6,58.6,56.4,58.9,56.4z"/>
	<path class="st1" d="M36.5,59.7l4.3-0.4c0.3,0,0.5,0.1,0.5,0.3l-0.4,8.2c0,0.2-0.2,0.4-0.5,0.4l-4.3,0.4c-0.3,0-0.5-0.1-0.5-0.3
		L36,60C36,59.9,36.2,59.7,36.5,59.7z"/>
</g>
</svg>
