<?xml version="1.0" encoding="utf-8"?>
<!-- Generator: Adobe Illustrator 24.3.0, SVG Export Plug-In . SVG Version: 6.00 Build 0)  -->
<svg version="1.1" id="Слой_1" xmlns="http://www.w3.org/2000/svg" xmlns:xlink="http://www.w3.org/1999/xlink" x="0px" y="0px"
	 viewBox="0 0 100 100" style="enable-background:new 0 0 100 100;" xml:space="preserve">
<style type="text/css">
	.st0{fill:#00D01D;}
	.st1{fill:#00E700;}
	.st2{fill:#FFFFFF;}
	.st3{fill:#00A11E;}
	.st4{fill:#FFFFFF;stroke:#008B13;stroke-miterlimit:10;}
	.st5{fill:#00A11E;stroke:#008B13;stroke-miterlimit:10;}
	.st6{fill:none;}
	.st7{font-family:'Intro';}
	.st8{font-size:22.0529px;}
	.st9{fill:#008B36;stroke:#008B36;stroke-miterlimit:10;}
	.st10{fill:#31FF17;}
</style>
<g id="Слой_1_1_">
	<g>
		<circle class="st0" cx="50" cy="50" r="49.5"/>
		<path class="st1" d="M50,1c27,0,49,22,49,49S77,99,50,99S1,77,1,50S23,1,50,1 M50,0C22.4,0,0,22.4,0,50s22.4,50,50,50
			s50-22.4,50-50S77.6,0,50,0L50,0z"/>
	</g>
	<g>
		<ellipse class="st2" cx="50" cy="49.5" rx="44.5" ry="45"/>
		<path class="st3" d="M50,5c24.3,0,44,20,44,44.5S74.3,94,50,94S6,74,6,49.5S25.7,5,50,5 M50,4C25.1,4,5,24.4,5,49.5S25.1,95,50,95
			s45-20.4,45-45.5S74.8,4,50,4L50,4z"/>
	</g>
	<g>
		<ellipse class="st4" cx="50.3" cy="49.5" rx="44.5" ry="45"/>
		<path class="st5" d="M50.3,5c24.3,0,44,20,44,44.5S74.6,94,50.3,94s-44-20-44-44.5S26.1,5,50.3,5 M50.3,4c-24.9,0-45,20.4-45,45.5
			S25.5,95,50.3,95s45-20.4,45-45.5S75.2,4,50.3,4L50.3,4z"/>
	</g>
	<rect x="33.4" y="12.6" class="st6" width="38.6" height="19.2"/>
	<text transform="matrix(0.7702 0 0 1 39.4654 28.8434)" class="st7 st8">JS</text>
	<polygon class="st9" points="66.5,77.1 49.5,86.9 49.5,33.9 71.2,30.8 	"/>
	<polygon class="st10" points="32.2,78.1 49.5,88.2 49.5,33.3 28.8,30.4 	"/>
</g>
<g id="Слой_3">
</g>
<g id="Слой_2_1_">
	<polygon class="st2" points="35.8,40.8 64.8,41.1 64.8,46.1 35.8,46.1 	"/>
	<path class="st2" d="M51.7,71.2l-0.9-4.4c0-0.4,0.2-0.8,0.5-0.8l11.5-2.7c0.4-0.1,0.7,0.2,0.8,0.6l0.9,4.4c0.1,0.4-0.2,0.8-0.5,0.8
		l-11.5,2.7C52.1,71.9,51.8,71.6,51.7,71.2z"/>
	<path class="st2" d="M35.9,68.4l1.1-4.6c0.1-0.3,0.4-0.5,0.8-0.4l15.5,2.7c0.4,0.1,0.6,0.3,0.5,0.6l-1.1,4.6
		c-0.1,0.3-0.4,0.5-0.8,0.4L36.4,69C36,69,35.8,68.7,35.9,68.4z"/>
	<path class="st2" d="M58.9,45.4h5c0.3,0,0.6,0.6,0.6,1.2v20.6c0,0.6-0.3,1.2-0.6,1.2h-5c-0.3,0-0.6-0.6-0.6-1.2V46.5
		C58.3,45.8,58.6,45.4,58.9,45.4z"/>
	<path class="st2" d="M36.5,59.7l4.3-0.4c0.3,0,0.5,0.1,0.5,0.3l-0.4,8.2c0,0.2-0.2,0.4-0.5,0.4l-4.3,0.4c-0.3,0-0.5-0.1-0.5-0.3
		L36,60C36,59.9,36.2,59.7,36.5,59.7z"/>
</g>
</svg>
