<?xml version="1.0" encoding="utf-8"?>
<!-- Generator: Adobe Illustrator 24.3.0, SVG Export Plug-In . SVG Version: 6.00 Build 0)  -->
<svg version="1.1" id="Слой_1" xmlns="http://www.w3.org/2000/svg" xmlns:xlink="http://www.w3.org/1999/xlink" x="0px" y="0px"
	 viewBox="0 0 100 100" style="enable-background:new 0 0 100 100;" xml:space="preserve">
<style type="text/css">
	.st0{fill:#00AAD0;}
	.st1{display:none;}
	.st2{display:inline;fill:#FFFFFF;}
	.st3{display:inline;fill:#00A11E;}
	.st4{display:inline;fill:#FFFFFF;stroke:#002D9E;stroke-miterlimit:10;}
	.st5{display:inline;fill:#00A11E;stroke:#002D9E;stroke-miterlimit:10;}
	.st6{fill:#FFFFFF;stroke:#1B00A2;stroke-miterlimit:10;}
	.st7{fill:#00A11E;stroke:#1B00A2;stroke-miterlimit:10;}
	.st8{fill:none;}
	.st9{font-family:'Intro';}
	.st10{font-size:22.0529px;}
	.st11{fill:#0087B9;}
	.st12{fill:#0032A2;}
	.st13{fill:#FFFFFF;}
	.st14{fill:#00A276;}
	.st15{font-size:9.8549px;}
</style>
<g id="Слой_1_1_">
	<g>
		<circle class="st0" cx="50" cy="50" r="49.5"/>
		<path class="st0" d="M50,1c27,0,49,22,49,49S77,99,50,99S1,77,1,50S23,1,50,1 M50,0C22.4,0,0,22.4,0,50s22.4,50,50,50
			s50-22.4,50-50S77.6,0,50,0L50,0z"/>
	</g>
	<g class="st1">
		<ellipse class="st2" cx="50" cy="49.5" rx="44.5" ry="45"/>
		<path class="st3" d="M50,5c24.3,0,44,20,44,44.5S74.3,94,50,94s-44-20-44-44.5S25.6,5,50,5 M50,4C25,4,4.9,24.4,4.9,49.5
			S25,95,50,95s45-20.4,45-45.5S74.8,4,50,4L50,4z"/>
	</g>
	<g class="st1">
		<ellipse class="st4" cx="50.7" cy="49.5" rx="44.7" ry="45"/>
		<path class="st5" d="M50.7,5C75,5,94.8,25,94.8,49.5S75,94,50.7,94S6.5,74,6.5,49.5S26.3,5,50.7,5 M50.7,4
			C25.7,4,5.5,24.4,5.5,49.5S25.7,95,50.7,95s45.2-20.4,45.2-45.5S75.6,4,50.7,4L50.7,4z"/>
	</g>
	<g>
		<ellipse class="st6" cx="50.8" cy="49.5" rx="44.7" ry="45"/>
		<path class="st7" d="M50.8,5C75.2,5,95,25,95,49.5S75.2,94,50.8,94S6.7,74,6.7,49.5S26.5,5,50.8,5 M50.8,4
			C25.9,4,5.7,24.4,5.7,49.5S25.9,95,50.8,95S96,74.6,96,49.5S75.8,4,50.8,4L50.8,4z"/>
	</g>
	<rect x="33.4" y="12.6" class="st8" width="38.6" height="19.2"/>
	<text transform="matrix(0.7702 0 0 1 31.8906 29.0811)" class="st9 st10">SQL</text>
	<polygon class="st11" points="66.5,77.5 49.5,87.4 49.5,33.9 71.2,30.8 	"/>
	<polygon class="st12" points="32.2,77.5 49.5,87.4 49.5,33.9 28.8,31.1 	"/>
	<path class="st13" d="M43,41.7"/>
	<path class="st14" d="M57.3,72h-16c-1.1,0-2-0.9-2-2V47.3c0-1.1,0.9-2,2-2h16c1.1,0,2,0.9,2,2V70C59.3,71.1,58.4,72,57.3,72z"/>
	<ellipse class="st13" cx="49.3" cy="46.6" rx="10" ry="6.2"/>
	<ellipse class="st14" cx="49.3" cy="71" rx="10.1" ry="6.4"/>
	<text transform="matrix(0.8878 0 0 1 40.5669 63.1895)" class="st13 st9 st15">SQL</text>
</g>
<g id="Слой_3">
</g>
</svg>
